<?xml version="1.0" encoding="UTF-8" standalone="no"?>
<!DOCTYPE svg PUBLIC "-//W3C//DTD SVG 1.1//EN"
 "http://www.w3.org/Graphics/SVG/1.1/DTD/svg11.dtd">
<!-- Generated by graphviz version 2.43.0 (0)
 -->
<!-- Title: TraderDeckSimpleAnalyzeReturns Pages: 1 -->
<svg width="585pt" height="463pt"
 viewBox="0.00 0.00 585.00 463.00" xmlns="http://www.w3.org/2000/svg" xmlns:xlink="http://www.w3.org/1999/xlink">
<g id="graph0" class="graph" transform="scale(1 1) rotate(0) translate(4 459)">
<title>TraderDeckSimpleAnalyzeReturns</title>
<polygon fill="white" stroke="transparent" points="-4,4 -4,-459 581,-459 581,4 -4,4"/>
<g id="clust3" class="cluster">
<title>cluster_endpoints</title>
<path fill="none" stroke="#a78bfa" d="M230,-222C230,-222 557,-222 557,-222 563,-222 569,-228 569,-234 569,-234 569,-363 569,-363 569,-369 563,-375 557,-375 557,-375 230,-375 230,-375 224,-375 218,-369 218,-363 218,-363 218,-234 218,-234 218,-228 224,-222 230,-222"/>
<text text-anchor="middle" x="393.5" y="-361.4" font-family="Inter" font-size="12.00">API Endpoints</text>
</g>
<g id="clust4" class="cluster">
<title>cluster_process</title>
<path fill="none" stroke="#34d399" d="M50,-8C50,-8 296,-8 296,-8 302,-8 308,-14 308,-20 308,-20 308,-174 308,-174 308,-180 302,-186 296,-186 296,-186 50,-186 50,-186 44,-186 38,-180 38,-174 38,-174 38,-20 38,-20 38,-14 44,-8 50,-8"/>
<text text-anchor="middle" x="173" y="-172.4" font-family="Inter" font-size="12.00">Processing</text>
</g>
<!-- frontend -->
<g id="node1" class="node">
<title>frontend</title>
<path fill="#f9fafb" stroke="#1f2937" d="M86,-455C86,-455 12,-455 12,-455 6,-455 0,-449 0,-443 0,-443 0,-431 0,-431 0,-425 6,-419 12,-419 12,-419 86,-419 86,-419 92,-419 98,-425 98,-431 98,-431 98,-443 98,-443 98,-449 92,-455 86,-455"/>
<text text-anchor="middle" x="49" y="-440.2" font-family="Inter" font-size="11.00">Frontend (SPA)</text>
<text text-anchor="middle" x="49" y="-428.2" font-family="Inter" font-size="11.00">Next.js</text>
</g>
<!-- api -->
<g id="node2" class="node">
<title>api</title>
<path fill="#f9fafb" stroke="#1f2937" d="M324,-455C324,-455 196,-455 196,-455 190,-455 184,-449 184,-443 184,-443 184,-431 184,-431 184,-425 190,-419 196,-419 196,-419 324,-419 324,-419 330,-419 336,-425 336,-431 336,-431 336,-443 336,-443 336,-449 330,-455 324,-455"/>
<text text-anchor="middle" x="260" y="-440.2" font-family="Inter" font-size="11.00">Spring Boot Backend API</text>
<text text-anchor="middle" x="260" y="-428.2" font-family="Inter" font-size="11.00">RESTful Endpoints</text>
</g>
<!-- frontend&#45;&gt;api -->
<g id="edge1" class="edge">
<title>frontend&#45;&gt;api</title>
<path fill="none" stroke="#374151" d="M106.45,-437C127.78,-437 152.44,-437 175.67,-437"/>
<polygon fill="#374151" stroke="#374151" points="106.2,-434.2 98.2,-437 106.2,-439.8 106.2,-434.2"/>
<polygon fill="#374151" stroke="#374151" points="175.81,-439.8 183.81,-437 175.81,-434.2 175.81,-439.8"/>
<text text-anchor="middle" x="141" y="-443" font-family="Inter" font-size="10.00">HTTPS</text>
</g>
<!-- db -->
<g id="node3" class="node">
<title>db</title>
<path fill="#f9fafb" stroke="#1f2937" d="M531.5,-455C531.5,-455 456.5,-455 456.5,-455 450.5,-455 444.5,-449 444.5,-443 444.5,-443 444.5,-431 444.5,-431 444.5,-425 450.5,-419 456.5,-419 456.5,-419 531.5,-419 531.5,-419 537.5,-419 543.5,-425 543.5,-431 543.5,-431 543.5,-443 543.5,-443 543.5,-449 537.5,-455 531.5,-455"/>
<text text-anchor="middle" x="494" y="-440.2" font-family="Inter" font-size="11.00">PostgreSQL DB</text>
<text text-anchor="middle" x="494" y="-428.2" font-family="Inter" font-size="11.00">RDS / Local</text>
</g>
<!-- api&#45;&gt;db -->
<g id="edge2" class="edge">
<title>api&#45;&gt;db</title>
<path fill="none" stroke="#374151" d="M344.71,-437C375.01,-437 408.45,-437 435.99,-437"/>
<polygon fill="#374151" stroke="#374151" points="344.3,-434.2 336.3,-437 344.3,-439.8 344.3,-434.2"/>
<polygon fill="#374151" stroke="#374151" points="436.34,-439.8 444.34,-437 436.34,-434.2 436.34,-439.8"/>
<text text-anchor="middle" x="390.25" y="-443" font-family="Inter" font-size="10.00">JDBC</text>
</g>
<!-- analyze -->
<g id="node4" class="node">
<title>analyze</title>
<path fill="#f9fafb" stroke="#1f2937" d="M326,-306C326,-306 238,-306 238,-306 232,-306 226,-300 226,-294 226,-294 226,-282 226,-282 226,-276 232,-270 238,-270 238,-270 326,-270 326,-270 332,-270 338,-276 338,-282 338,-282 338,-294 338,-294 338,-300 332,-306 326,-306"/>
<text text-anchor="middle" x="282" y="-291.2" font-family="Inter" font-size="11.00">/analysis/analyze</text>
<text text-anchor="middle" x="282" y="-279.2" font-family="Inter" font-size="11.00">async job</text>
</g>
<!-- api&#45;&gt;analyze -->
<g id="edge3" class="edge">
<title>api&#45;&gt;analyze</title>
<path fill="none" stroke="#374151" stroke-width="2" d="M249.69,-418.6C244.83,-408.38 240.58,-395.13 243,-383 247.92,-358.29 259.47,-331.93 268.72,-313.44"/>
<polygon fill="#374151" stroke="#374151" stroke-width="2" points="271.37,-314.42 272.53,-306.02 266.39,-311.86 271.37,-314.42"/>
<text text-anchor="middle" x="309.5" y="-386" font-family="Inter" font-size="10.00">only endpoint using worker</text>
</g>
<!-- other_apis -->
<g id="node5" class="node">
<title>other_apis</title>
<path fill="#f9fafb" stroke="#1f2937" d="M548.5,-346C548.5,-346 393.5,-346 393.5,-346 387.5,-346 381.5,-340 381.5,-334 381.5,-334 381.5,-242 381.5,-242 381.5,-236 387.5,-230 393.5,-230 393.5,-230 548.5,-230 548.5,-230 554.5,-230 560.5,-236 560.5,-242 560.5,-242 560.5,-334 560.5,-334 560.5,-340 554.5,-346 548.5,-346"/>
<text text-anchor="middle" x="471" y="-333.2" font-family="Inter" font-size="11.00">/api/v1/auth/register</text>
<text text-anchor="middle" x="471" y="-321.2" font-family="Inter" font-size="11.00">/api/v1/auth/login</text>
<text text-anchor="middle" x="471" y="-309.2" font-family="Inter" font-size="11.00">/api/users/profile</text>
<text text-anchor="middle" x="471" y="-297.2" font-family="Inter" font-size="11.00">/api/v1/ticker&#45;category</text>
<text text-anchor="middle" x="471" y="-285.2" font-family="Inter" font-size="11.00">/api/technical&#45;analysis</text>
<text text-anchor="middle" x="471" y="-273.2" font-family="Inter" font-size="11.00">/api/v1/research&#45;notes</text>
<text text-anchor="middle" x="471" y="-261.2" font-family="Inter" font-size="11.00">/api/v1/implementation&#45;notes</text>
<text text-anchor="middle" x="471" y="-249.2" font-family="Inter" font-size="11.00">/api/agents/status</text>
<text text-anchor="middle" x="471" y="-237.2" font-family="Inter" font-size="11.00">direct (sync)</text>
</g>
<!-- api&#45;&gt;other_apis -->
<g id="edge4" class="edge">
<title>api&#45;&gt;other_apis</title>
<path fill="none" stroke="#374151" d="M330.18,-418.98C347.99,-412.79 366.47,-404.62 382,-394 398.4,-382.79 413.53,-367.79 426.49,-352.64"/>
<polygon fill="#374151" stroke="#374151" points="428.93,-354.09 431.91,-346.15 424.63,-350.5 428.93,-354.09"/>
<text text-anchor="middle" x="407" y="-386" font-family="Inter" font-size="10.00">direct</text>
</g>
<!-- worker -->
<g id="node6" class="node">
<title>worker</title>
<path fill="#f9fafb" stroke="#1f2937" d="M233.5,-157C233.5,-157 112.5,-157 112.5,-157 106.5,-157 100.5,-151 100.5,-145 100.5,-145 100.5,-125 100.5,-125 100.5,-119 106.5,-113 112.5,-113 112.5,-113 233.5,-113 233.5,-113 239.5,-113 245.5,-119 245.5,-125 245.5,-125 245.5,-145 245.5,-145 245.5,-151 239.5,-157 233.5,-157"/>
<text text-anchor="middle" x="173" y="-144.2" font-family="Inter" font-size="11.00">Async Worker</text>
<text text-anchor="middle" x="173" y="-132.2" font-family="Inter" font-size="11.00">processes analyze jobs</text>
<text text-anchor="middle" x="173" y="-120.2" font-family="Inter" font-size="11.00">returns response</text>
</g>
<!-- analyze&#45;&gt;worker -->
<g id="edge5" class="edge">
<title>analyze&#45;&gt;worker</title>
<path fill="none" stroke="#374151" d="M269.71,-269.97C251.07,-244.16 215.48,-194.85 193.06,-163.79"/>
<polygon fill="#374151" stroke="#374151" points="195.16,-161.92 188.21,-157.07 190.62,-165.2 195.16,-161.92"/>
<text text-anchor="middle" x="241.5" y="-197" font-family="Inter" font-size="10.00">enqueue</text>
</g>
<!-- other_apis&#45;&gt;db -->
<g id="edge8" class="edge">
<title>other_apis&#45;&gt;db</title>
<path fill="none" stroke="#374151" d="M479.96,-346.27C483.45,-368.58 487.27,-393 490.05,-410.73"/>
<polygon fill="#374151" stroke="#374151" points="487.31,-411.38 491.32,-418.85 492.85,-410.51 487.31,-411.38"/>
<text text-anchor="middle" x="501.5" y="-386" font-family="Inter" font-size="10.00">CRUD</text>
</g>
<!-- worker&#45;&gt;api -->
<g id="edge7" class="edge">
<title>worker&#45;&gt;api</title>
<path fill="none" stroke="#374151" d="M161.36,-157.03C138.71,-201.08 94.57,-304.73 138,-375 149.37,-393.4 168.16,-406.43 187.62,-415.59"/>
<polygon fill="#374151" stroke="#374151" points="186.65,-418.22 195.1,-418.91 188.92,-413.1 186.65,-418.22"/>
<text text-anchor="middle" x="173" y="-285.5" font-family="Inter" font-size="10.00">result payload</text>
</g>
<!-- bedrock -->
<g id="node7" class="node">
<title>bedrock</title>
<path fill="#f9fafb" stroke="#1f2937" d="M288,-52C288,-52 58,-52 58,-52 52,-52 46,-46 46,-40 46,-40 46,-28 46,-28 46,-22 52,-16 58,-16 58,-16 288,-16 288,-16 294,-16 300,-22 300,-28 300,-28 300,-40 300,-40 300,-46 294,-52 288,-52"/>
<text text-anchor="middle" x="173" y="-37.2" font-family="Inter" font-size="11.00">Bedrock Workflow</text>
<text text-anchor="middle" x="173" y="-25.2" font-family="Inter" font-size="11.00">fundamentals • technicals • news • trades</text>
</g>
<!-- worker&#45;&gt;bedrock -->
<g id="edge6" class="edge">
<title>worker&#45;&gt;bedrock</title>
<path fill="none" stroke="#374151" d="M173,-112.52C173,-97.26 173,-76.71 173,-60.6"/>
<polygon fill="#374151" stroke="#374151" points="175.8,-60.16 173,-52.16 170.2,-60.17 175.8,-60.16"/>
<text text-anchor="middle" x="213" y="-80" font-family="Inter" font-size="10.00">invoke workflow</text>
</g>
</g>
</svg>
